# xmcd
#
# Track frame offsets: 
#        150
#        16762
#        50277
#        71422
#        90790
#        118770
#        143220
#        178300
#        208327
#        229457
#        253345
#        275100
#
# Disc length: 4108 seconds
#
# Revision: 5
# Processed by: cddbd v1.5.2PL0 Copyright (c) Steve Scherf et al.
# Submitted via: ExactAudioCopyFreeDBPlugin 1.0
#
DISCID=b4100a0c
DTITLE=Harvey Mason - With All My Heart
DYEAR=2003
DGENRE=Jazz
TTITLE0=Bernie's Tune (Kenny Barron, Ron Carter)
TTITLE1=If I Should Lose You (Chick Corea, Dave Carpenter)
TTITLE2=So Near, So Far (Fred Hersch, Eddie Gomez)
TTITLE3=Swamp Fire (Monty Alexander, Charnett Mofett)
TTITLE4=Smoke Gets In Your Eyes (Bob James, Charlie Haden)
TTITLE5=Hindsight (edar Walton - Ron Carter)
TTITLE6=Dindi (Brad Mehldau, Larry Granadear)
TTITLE7=Without A Song (Malgrew Miller, Ron Carter)
TTITLE8=One Morning In May (Dave Grusin, Mike Valelio)
TTITLE9=Speak Like A Child (Herbie Hancock, Dave Carpenter)
TTITLE10=Tess (Hank Jones, George Mraz)
TTITLE11=P's and Q's (John Beasley, Ron Carter)
EXTD=YEAR: 2003
EXTT0=
EXTT1=
EXTT2=
EXTT3=
EXTT4=
EXTT5=
EXTT6=
EXTT7=
EXTT8=
EXTT9=
EXTT10=
EXTT11=
PLAYORDER=
